<svg width="222" height="172" viewBox="0 0 222 172" fill="none" xmlns="http://www.w3.org/2000/svg">
<path fill-rule="evenodd" clip-rule="evenodd" d="M68.7143 64.5C68.7143 40.7517 87.6462 21.5 111 21.5C134.353 21.5 153.286 40.7517 153.286 64.5V75.25H163.857C184.292 75.25 200.857 92.0953 200.857 112.875C200.857 133.655 184.292 150.5 163.857 150.5H162.8C156.961 150.5 152.229 155.313 152.229 161.25C152.229 167.187 156.961 172 162.8 172H163.857C195.969 172 222 145.529 222 112.875C222 83.6275 201.116 59.3397 173.684 54.5911C168.997 23.6729 142.717 0 111 0C79.283 0 53.0031 23.6729 48.3152 54.5911C20.884 59.3397 0 83.6275 0 112.875C0 145.529 26.0314 172 58.1429 172H59.2C65.0384 172 69.7714 167.187 69.7714 161.25C69.7714 155.313 65.0384 150.5 59.2 150.5H58.1429C37.7083 150.5 21.1429 133.655 21.1429 112.875C21.1429 92.0953 37.7083 75.25 58.1429 75.25H68.7143V64.5ZM121.571 75.25C121.571 69.3128 116.839 64.5 111 64.5C105.161 64.5 100.429 69.3128 100.429 75.25V135.297L86.7609 121.399C82.6324 117.201 75.939 117.201 71.8105 121.399C67.6822 125.597 67.6822 132.403 71.8105 136.601L103.525 168.851C107.653 173.049 114.347 173.049 118.475 168.851L150.189 136.601C154.317 132.403 154.317 125.597 150.189 121.399C146.061 117.201 139.367 117.201 135.239 121.399L121.571 135.297V75.25Z" fill="white"/>
</svg>
