<svg width="342" height="288" viewBox="0 0 342 288" fill="none" xmlns="http://www.w3.org/2000/svg">
<path d="M261.052 171.252C257.015 168.618 251.768 168.229 246.97 170.118L169.263 119.421L144.948 103.558L152.646 92.4715L153.499 93.028C154.912 93.9501 156.92 93.4571 157.983 91.9261C159.046 90.3952 158.761 88.4071 157.348 87.485L156.495 86.9285L160.571 81.0592C166.327 82.9912 173.279 80.6093 177.214 74.9412C181.813 68.3184 180.579 59.6849 174.464 55.6954L126.691 24.5274C120.576 20.538 111.86 22.6797 107.261 29.3021C103.325 34.9706 103.666 42.1098 107.679 46.5515L103.604 52.4208L102.751 51.8643C101.337 50.9422 99.3301 51.4352 98.267 52.9661C97.204 54.497 97.4884 56.4852 98.9018 57.4073L99.7547 57.9638L72.8116 96.7657L71.9587 96.2092C70.5453 95.2871 68.538 95.7801 67.475 97.311C66.412 98.8419 66.6964 100.83 68.1097 101.752L68.9627 102.309L64.8872 108.178C59.1312 106.246 52.1793 108.628 48.2434 114.296C43.645 120.918 44.8792 129.552 50.9941 133.541L98.7673 164.709C104.882 168.699 113.598 166.557 118.197 159.935C122.133 154.266 121.792 147.127 117.779 142.685L121.854 136.816L122.707 137.372C124.121 138.295 126.128 137.802 127.191 136.271C128.254 134.74 127.97 132.752 126.556 131.83L125.703 131.273L141.099 109.1L166.099 125.411L244.49 176.554C245.404 177.15 246.614 177.174 247.666 176.616C250.819 174.945 254.473 175.013 257.204 176.794C261.437 179.557 262.291 185.534 259.108 190.119C255.924 194.703 249.89 196.186 245.656 193.424C242.926 191.643 241.485 188.387 241.896 184.926C242.033 183.772 241.555 182.694 240.641 182.098L144.928 119.653C143.515 118.731 141.507 119.224 140.444 120.755C139.381 122.286 139.666 124.274 141.079 125.196L235.423 186.747C235.423 191.767 237.77 196.333 241.807 198.967C248.864 203.571 258.92 201.099 264.226 193.458C269.532 185.816 268.108 175.855 261.052 171.252ZM113.078 156.596C110.602 160.162 105.908 161.315 102.616 159.167L54.8425 127.999C51.55 125.851 50.8855 121.202 53.3614 117.636C55.8373 114.07 60.5311 112.917 63.8236 115.065L111.597 146.233C114.889 148.381 115.554 153.03 113.078 156.596ZM147.528 89.1321L120.585 127.934L77.9301 100.106L104.873 61.3036L147.528 89.1321ZM108.722 55.7605L112.571 50.2175L155.225 78.046L151.376 83.5889L108.722 55.7605ZM116.735 133.477L112.887 139.02L70.2321 111.192L74.081 105.649L116.735 133.477ZM161.634 74.1725L113.861 43.0045C110.568 40.8564 109.904 36.207 112.38 32.6414C114.855 29.0758 119.549 27.9223 122.842 30.0704L170.615 61.2384C173.908 63.3865 174.572 68.0359 172.096 71.6015C169.62 75.1675 164.926 76.3206 161.634 74.1725Z" fill="white"/>
</svg>
