<svg width="429" height="540" viewBox="0 0 429 540" fill="none" xmlns="http://www.w3.org/2000/svg">
<path d="M267.515 468.438H162.504V479.3H267.515V468.438Z" fill="#1B2A41"/>
<path d="M264.765 499.231L262.114 501.42L248.704 512.475H181.398L168.445 501.42L165.885 499.231H264.765Z" fill="#1B2A41"/>
<path d="M267.515 437.558H162.504V448.49H267.515V437.558Z" fill="#1B2A41"/>
<path d="M267.515 429.039V439.474H162.504V429.039C187.095 429.039 215.044 429.039 215.044 429.039C215.044 429.039 242.926 429.039 267.515 429.039Z" fill="#1B2A41"/>
<path d="M267.515 408.099H162.504V418.961H267.515V408.099Z" fill="#1B2A41"/>
<path d="M267.515 399.579V410.015H162.504V399.579C187.095 399.579 215.044 399.579 215.044 399.579C215.044 399.579 242.926 399.579 267.515 399.579Z" fill="#1B2A41"/>
<path d="M264.765 499.231L262.114 501.42H168.445L165.885 499.231H264.765Z" fill="#1B2A41"/>
<path d="M281.087 425.277V429.963C281.087 434.151 276.652 437.559 271.21 437.559H158.809C153.434 437.559 149 434.151 149 429.963V425.277C149 421.089 153.435 417.682 158.809 417.682H271.211C276.652 417.682 281.087 421.089 281.087 425.277Z" fill="#7C2C2C"/>
<path d="M281.087 456.086V460.771C281.087 464.96 276.652 468.438 271.21 468.438H158.809C153.434 468.438 149 464.96 149 460.771V456.086C149 451.897 153.435 448.49 158.809 448.49H271.211C276.652 448.49 281.087 451.897 281.087 456.086Z" fill="#7C2C2C"/>
<path d="M281.087 486.895V491.651C281.087 495.839 276.652 499.247 271.21 499.247H158.809C153.434 499.247 149 495.839 149 491.651V486.895C149 486.398 149.067 485.829 149.202 485.332C150.142 481.925 154.107 479.299 158.81 479.299H271.212C276.652 479.3 281.087 482.707 281.087 486.895Z" fill="#7C2C2C"/>
<path d="M246.471 510.51H184.221H177.736C177.736 526.591 194.565 539.625 215.325 539.625C236.085 539.625 252.914 526.59 252.914 510.51H246.471Z" fill="#1B2A41"/>
<path d="M429 178.661C429 228.014 405.043 272.679 366.168 305.059C327.378 337.369 285.772 348.091 282.363 400C264.715 400 242.719 400 242.719 400H186.282C186.282 400 166.248 400 149.111 400C146.128 355.049 107.593 340.99 77.669 317.131C72.9797 313.368 68.0353 309.392 62.8344 305.059C23.9567 272.679 0 228.015 0 178.661C0 129.308 23.9567 84.644 62.8331 52.335C101.623 20.0249 155.248 0 214.5 0C262.072 0 306.064 12.9249 341.615 34.7948C350.31 40.1206 358.494 46.0142 366.168 52.335C368.811 54.4645 371.369 56.7367 373.841 59.01C378.615 63.4835 383.219 68.1707 387.482 72.9985C413.655 102.61 429 139.11 429 178.661Z" fill="#C9A227"/>
</svg>
